<svg width="5" height="11" viewBox="0 0 5 11" fill="none" xmlns="http://www.w3.org/2000/svg">
<path d="M2.87811 5.06089V2.28233C3.15503 2.38517 3.39665 2.57386 3.56464 2.82903C3.71334 3.05478 4.01683 3.11728 4.2425 2.96865C4.46825 2.82002 4.53075 2.51653 4.38205 2.29079C4.03046 1.75694 3.48872 1.39452 2.87811 1.26679V0.48938C2.87811 0.219102 2.65901 0 2.38873 0C2.11846 0 1.89935 0.219102 1.89935 0.48938V1.26533C0.816216 1.49114 0 2.45305 0 3.60218C0 4.75132 0.816285 5.71337 1.89935 5.93918V8.71774C1.62243 8.6149 1.38082 8.42621 1.21282 8.17103C1.06412 7.94529 0.760636 7.88272 0.534962 8.03142C0.309218 8.18005 0.246717 8.48354 0.395419 8.70928C0.747003 9.24313 1.28875 9.60555 1.89935 9.73328V10.5106C1.89935 10.7809 2.11846 11 2.38873 11C2.65901 11 2.87811 10.7809 2.87811 10.5106V9.73474C3.96125 9.50893 4.77747 8.54702 4.77747 7.39788C4.77747 6.24875 3.96125 5.2867 2.87811 5.06089ZM0.97876 3.60218C0.97876 2.99724 1.36285 2.48171 1.89935 2.28268V4.92169C1.36285 4.72265 0.97876 4.20713 0.97876 3.60218ZM2.87811 8.71732V6.07831C3.41461 6.27734 3.79871 6.79287 3.79871 7.39781C3.79871 8.00276 3.41468 8.51828 2.87811 8.71732Z" fill="black"/>
</svg>
