<svg width="7" height="11" viewBox="0 0 7 11" fill="none" xmlns="http://www.w3.org/2000/svg">
<path d="M3.83333 5.66667C5.39563 5.66667 6.66667 4.39563 6.66667 2.83333C6.66667 1.27103 5.39563 0 3.83333 0C3.82723 0 3.82117 0.0001 3.81513 0.000333333H1.50067C1.22453 0.000333333 1.00003 0.224167 1.00003 0.5003V5.16667V6.66667H0.5C0.223867 6.66667 0 6.89053 0 7.16667C0 7.4428 0.223867 7.66667 0.5 7.66667H1V10.5C1 10.7761 1.22387 11 1.5 11C1.77613 11 2 10.7761 2 10.5V7.66667H3.83333C4.10947 7.66667 4.33333 7.4428 4.33333 7.16667C4.33333 6.89053 4.10947 6.66667 3.83333 6.66667H2V5.66667H3.83333ZM3.83333 1.00033C3.83873 1.00033 3.84413 1.00023 3.84947 1.00007C4.853 1.00873 5.66667 1.8278 5.66667 2.83333C5.66667 3.84423 4.84423 4.66667 3.83333 4.66667H2V1.00033H3.83333Z" fill="black"/>
</svg>
